<svg width="16" height="16" viewBox="0 0 16 16" fill="none" xmlns="http://www.w3.org/2000/svg">
<mask id="path-1-inside-1_35_4865" fill="white">
<path d="M14.9762 1.24411e-06H0.71135C0.587952 -0.000219595 0.466889 0.0336391 0.36151 0.0978443C0.25613 0.16205 0.170526 0.254107 0.114137 0.363868C0.0569598 0.475182 0.0316325 0.600123 0.0409481 0.724915C0.0502636 0.849708 0.0938601 0.969504 0.166931 1.07109L5.39297 8.43295C5.39472 8.4355 5.39663 8.43786 5.39837 8.44042C5.58824 8.69683 5.69098 9.00732 5.69154 9.32637V15.3284C5.69097 15.4164 5.70781 15.5037 5.7411 15.5851C5.77438 15.6666 5.82345 15.7406 5.88548 15.803C5.94751 15.8655 6.02127 15.915 6.10252 15.9488C6.18376 15.9826 6.27089 15.9999 6.35889 15.9999C6.44932 15.9999 6.53863 15.9818 6.62204 15.9472L9.55868 14.8275C9.82184 14.7472 9.9965 14.4989 9.9965 14.1999V9.32637C9.99703 9.00734 10.0997 8.69686 10.2895 8.44042C10.2912 8.43786 10.2932 8.4355 10.2949 8.43295L15.5208 1.07077C15.5938 0.969246 15.6374 0.849511 15.6468 0.724777C15.6561 0.600042 15.6308 0.475159 15.5736 0.363909C15.5172 0.254122 15.4315 0.162044 15.3261 0.0978312C15.2207 0.0336179 15.0996 -0.000236549 14.9762 1.24411e-06ZM9.63462 7.95927C9.34276 8.3554 9.18489 8.83433 9.18397 9.32637V14.1012L6.5037 15.1231V9.32637C6.50279 8.83429 6.34484 8.35535 6.05285 7.95927L0.979296 0.812205H14.7084L9.63462 7.95927Z"/>
</mask>
<path d="M14.9762 1.24411e-06H0.71135C0.587952 -0.000219595 0.466889 0.0336391 0.36151 0.0978443C0.25613 0.16205 0.170526 0.254107 0.114137 0.363868C0.0569598 0.475182 0.0316325 0.600123 0.0409481 0.724915C0.0502636 0.849708 0.0938601 0.969504 0.166931 1.07109L5.39297 8.43295C5.39472 8.4355 5.39663 8.43786 5.39837 8.44042C5.58824 8.69683 5.69098 9.00732 5.69154 9.32637V15.3284C5.69097 15.4164 5.70781 15.5037 5.7411 15.5851C5.77438 15.6666 5.82345 15.7406 5.88548 15.803C5.94751 15.8655 6.02127 15.915 6.10252 15.9488C6.18376 15.9826 6.27089 15.9999 6.35889 15.9999C6.44932 15.9999 6.53863 15.9818 6.62204 15.9472L9.55868 14.8275C9.82184 14.7472 9.9965 14.4989 9.9965 14.1999V9.32637C9.99703 9.00734 10.0997 8.69686 10.2895 8.44042C10.2912 8.43786 10.2932 8.4355 10.2949 8.43295L15.5208 1.07077C15.5938 0.969246 15.6374 0.849511 15.6468 0.724777C15.6561 0.600042 15.6308 0.475159 15.5736 0.363909C15.5172 0.254122 15.4315 0.162044 15.3261 0.0978312C15.2207 0.0336179 15.0996 -0.000236549 14.9762 1.24411e-06ZM9.63462 7.95927C9.34276 8.3554 9.18489 8.83433 9.18397 9.32637V14.1012L6.5037 15.1231V9.32637C6.50279 8.83429 6.34484 8.35535 6.05285 7.95927L0.979296 0.812205H14.7084L9.63462 7.95927Z" fill="#0B0B0B"/>
<path d="M14.9762 1.24411e-06L14.9762 2L14.9801 2L14.9762 1.24411e-06ZM0.71135 1.24411e-06L0.707771 2H0.71135V1.24411e-06ZM0.114137 0.363868L-1.66483 -0.550068L-1.66489 -0.54995L0.114137 0.363868ZM0.166931 1.07109L1.79782 -0.0866432L1.79057 -0.0967271L0.166931 1.07109ZM5.39297 8.43295L7.04487 7.30546L7.03449 7.29025L7.02383 7.27523L5.39297 8.43295ZM5.39837 8.44042L3.74647 9.56791L3.76816 9.59967L3.79104 9.63058L5.39837 8.44042ZM5.69154 9.32637L7.69154 9.32637L7.69154 9.32286L5.69154 9.32637ZM5.69154 15.3284L7.69154 15.3413V15.3284H5.69154ZM6.35889 15.9999L6.35889 13.9999L6.35836 13.9999L6.35889 15.9999ZM6.62204 15.9472L5.90946 14.0785L5.88245 14.0888L5.85575 14.0999L6.62204 15.9472ZM9.55868 14.8275L8.97533 12.9144L8.90996 12.9344L8.8461 12.9587L9.55868 14.8275ZM9.9965 9.32637L7.9965 9.32306V9.32637H9.9965ZM10.2895 8.44042L11.8971 9.63022L11.9198 9.59948L11.9414 9.56791L10.2895 8.44042ZM10.2949 8.43295L8.66401 7.27529L8.65337 7.29028L8.64301 7.30546L10.2949 8.43295ZM15.5208 1.07077L13.8974 -0.0975195L13.8899 -0.0868877L15.5208 1.07077ZM15.5736 0.363909L13.7946 1.27786L13.7947 1.27808L15.5736 0.363909ZM9.63462 7.95927L11.2448 9.14561L11.2552 9.1314L11.2655 9.11701L9.63462 7.95927ZM9.18397 9.32637L7.18397 9.32266V9.32637H9.18397ZM9.18397 14.1012L9.89649 15.97L11.184 15.4791V14.1012H9.18397ZM6.5037 15.1231H4.5037V18.0261L7.21621 16.9919L6.5037 15.1231ZM6.5037 9.32637L8.5037 9.32637L8.5037 9.32267L6.5037 9.32637ZM6.05285 7.95927L4.42199 9.11698L4.43237 9.13161L4.44302 9.14605L6.05285 7.95927ZM0.979296 0.812205V-1.1878H-2.89316L-0.651563 1.96992L0.979296 0.812205ZM14.7084 0.812205L16.3392 1.96995L18.5809 -1.1878H14.7084V0.812205ZM14.9762 -2H0.71135V2H14.9762V-2ZM0.71493 -2C0.223215 -2.00088 -0.259192 -1.86596 -0.679106 -1.61011L1.40213 1.8058C1.19297 1.93323 0.952689 2.00044 0.707771 2L0.71493 -2ZM-0.679106 -1.61011C-1.09902 -1.35427 -1.44013 -0.98744 -1.66483 -0.550068L1.8931 1.2778C1.78118 1.49566 1.61128 1.67837 1.40213 1.8058L-0.679106 -1.61011ZM-1.66489 -0.54995C-1.89036 -0.110999 -1.99024 0.381693 -1.9535 0.873798L2.0354 0.576033C2.0535 0.818553 2.00428 1.06136 1.89316 1.27769L-1.66489 -0.54995ZM-1.9535 0.873798C-1.91677 1.3659 -1.74485 1.83831 -1.45671 2.23892L1.79057 -0.0967271C1.93257 0.100702 2.0173 0.333513 2.0354 0.576033L-1.9535 0.873798ZM-1.46393 2.22881L3.76212 9.59066L7.02383 7.27523L1.79779 -0.0866209L-1.46393 2.22881ZM3.74107 9.56043C3.75631 9.58276 3.76919 9.60068 3.77737 9.61191C3.78152 9.61761 3.78495 9.62226 3.78712 9.6252C3.78823 9.6267 3.78915 9.62794 3.78975 9.62875C3.79031 9.6295 3.79081 9.63017 3.79086 9.63024C3.79134 9.63089 3.79004 9.62914 3.78849 9.62704C3.78677 9.62472 3.7838 9.62069 3.7801 9.61561C3.77283 9.60562 3.76084 9.58896 3.74647 9.56791L7.05027 7.31293C7.03503 7.2906 7.02215 7.27268 7.01398 7.26145C7.00983 7.25575 7.0064 7.25111 7.00422 7.24816C7.00311 7.24667 7.00219 7.24543 7.00159 7.24461C7.00103 7.24386 7.00054 7.24319 7.00049 7.24313C7 7.24248 7.0013 7.24422 7.00285 7.24632C7.00458 7.24865 7.00755 7.25268 7.01125 7.25776C7.01852 7.26775 7.0305 7.28441 7.04487 7.30546L3.74107 9.56043ZM3.79104 9.63058C3.7266 9.54356 3.69173 9.43817 3.69154 9.32988L7.69154 9.32286C7.69022 8.57646 7.44987 7.85011 7.0057 7.25025L3.79104 9.63058ZM3.69154 9.32637V15.3284H7.69154V9.32637H3.69154ZM3.69158 15.3155C3.68931 15.6673 3.75664 16.016 3.88971 16.3417L7.59249 14.8286C7.65899 14.9913 7.69263 15.1656 7.6915 15.3413L3.69158 15.3155ZM3.88971 16.3417C4.02277 16.6673 4.21894 16.9634 4.4669 17.2129L7.30406 14.3932C7.42797 14.5179 7.52599 14.6658 7.59249 14.8286L3.88971 16.3417ZM4.4669 17.2129C4.71486 17.4624 5.00972 17.6604 5.33454 17.7954L6.8705 14.1021C7.03281 14.1696 7.18016 14.2685 7.30406 14.3932L4.4669 17.2129ZM5.33454 17.7954C5.65933 17.9305 6.00765 18 6.35941 17.9999L6.35836 13.9999C6.53414 13.9999 6.70819 14.0346 6.8705 14.1021L5.33454 17.7954ZM6.35889 17.9999C6.71632 17.9999 7.06574 17.9284 7.38833 17.7946L5.85575 14.0999C6.01151 14.0353 6.18233 13.9999 6.35889 13.9999V17.9999ZM7.33462 17.816L10.2713 16.6962L8.8461 12.9587L5.90946 14.0785L7.33462 17.816ZM10.142 16.7405C11.3314 16.3778 11.9965 15.2871 11.9965 14.1999H7.9965C7.9965 13.7108 8.3123 13.1166 8.97533 12.9144L10.142 16.7405ZM11.9965 14.1999V9.32637H7.9965V14.1999H11.9965ZM11.9965 9.32968C11.9963 9.4379 11.9615 9.54322 11.8971 9.63022L8.6819 7.25062C8.23793 7.85049 7.99774 8.57677 7.9965 9.32306L11.9965 9.32968ZM11.9414 9.56791C11.927 9.58903 11.915 9.60574 11.9077 9.61576C11.904 9.62086 11.901 9.6249 11.8992 9.62723C11.8977 9.62934 11.8964 9.63109 11.8969 9.63044C11.8969 9.63037 11.8974 9.6297 11.898 9.62895C11.8986 9.62813 11.8995 9.62689 11.9006 9.62539C11.9028 9.62244 11.9062 9.61778 11.9104 9.61206C11.9186 9.6008 11.9315 9.58283 11.9468 9.56043L8.64301 7.30546C8.65742 7.28434 8.66945 7.26762 8.67674 7.2576C8.68045 7.25251 8.68344 7.24847 8.68516 7.24613C8.68672 7.24403 8.68802 7.24227 8.68754 7.24292C8.68749 7.24299 8.68699 7.24366 8.68643 7.24442C8.68583 7.24523 8.6849 7.24647 8.68379 7.24798C8.68161 7.25093 8.67817 7.25559 8.67401 7.2613C8.66581 7.27256 8.65289 7.29053 8.6376 7.31293L11.9414 9.56791ZM11.9258 9.5906L17.1517 2.22843L13.8899 -0.0868877L8.66401 7.27529L11.9258 9.5906ZM17.1441 2.23903C17.4324 1.83843 17.6044 1.36595 17.6412 0.873735L13.6523 0.575818C13.6704 0.333072 13.7553 0.100065 13.8975 -0.0974947L17.1441 2.23903ZM17.6412 0.873735C17.678 0.381535 17.578 -0.111258 17.3524 -0.550258L13.7947 1.27808C13.6835 1.06158 13.6342 0.81855 13.6523 0.575818L17.6412 0.873735ZM17.3525 -0.550037C17.1278 -0.987481 16.7866 -1.35435 16.3666 -1.6102L14.2856 1.80586C14.0765 1.67844 13.9065 1.49572 13.7946 1.27786L17.3525 -0.550037ZM16.3666 -1.6102C15.9466 -1.86605 15.4641 -2.00094 14.9723 -2L14.9801 2C14.7351 2.00047 14.4948 1.93329 14.2856 1.80586L16.3666 -1.6102ZM8.02447 6.77293C7.48012 7.51175 7.18568 8.40496 7.18398 9.32266L11.184 9.33008C11.1841 9.26369 11.2054 9.19906 11.2448 9.14561L8.02447 6.77293ZM7.18397 9.32637V14.1012H11.184V9.32637H7.18397ZM8.47146 12.2325L5.79119 13.2544L7.21621 16.9919L9.89649 15.97L8.47146 12.2325ZM8.5037 15.1231V9.32637H4.5037V15.1231H8.5037ZM8.5037 9.32267C8.502 8.40475 8.20736 7.51134 7.66268 6.77249L4.44302 9.14605C4.48232 9.19937 4.50358 9.26383 4.5037 9.33007L8.5037 9.32267ZM7.68371 6.80156L2.61016 -0.345508L-0.651563 1.96992L4.42199 9.11698L7.68371 6.80156ZM0.979296 2.8122H14.7084V-1.1878H0.979296V2.8122ZM13.0775 -0.345539L8.00379 6.80153L11.2655 9.11701L16.3392 1.96995L13.0775 -0.345539Z" fill="#0B0B0B" mask="url(#path-1-inside-1_35_4865)"/>
</svg>
