<svg width="16" height="16" viewBox="0 0 16 16" fill="none" xmlns="http://www.w3.org/2000/svg">
<path d="M13.6504 2.34961C12.1353 0.834472 10.1285 0 8 0C3.59473 0 0 3.59521 0 7.99999C0 9.30346 0.320068 10.5902 0.927368 11.7341L0.0137939 15.4184C-0.0257568 15.5779 0.0211182 15.7464 0.137329 15.8627C0.252808 15.9783 0.421143 16.026 0.581543 15.9862L4.26587 15.0725C5.40979 15.6798 6.69653 16 8 16C10.1285 16 12.1353 15.1655 13.6504 13.6504C15.1655 12.1351 16 10.1285 16 7.99999C16 5.87145 15.1655 3.86474 13.6504 2.34961ZM8 15.0625C6.79395 15.0625 5.60449 14.7521 4.55994 14.165C4.45593 14.1066 4.3335 14.09 4.21741 14.1186L1.11096 14.889L1.88123 11.7825C1.91003 11.6666 1.89343 11.5441 1.83496 11.4399C1.2478 10.3955 0.9375 9.20605 0.9375 7.99999C0.9375 4.10571 4.10571 0.937499 8 0.937499C11.8943 0.937499 15.0625 4.10571 15.0625 7.99999C15.0625 11.8943 11.8943 15.0625 8 15.0625Z" fill="white"/>
<path d="M11.5855 9.25338C11.3196 8.98737 11.0269 8.71885 10.6887 8.55575C10.1833 8.31221 9.70117 8.382 9.33091 8.75228C9.16239 8.92081 8.93055 9.25306 8.79714 9.41647C8.45299 9.3589 7.76544 8.77913 7.49244 8.50706C7.22049 8.23405 6.64117 7.54636 6.58361 7.20293C6.74607 7.07023 7.07945 6.83745 7.24786 6.66913C7.61813 6.29885 7.68792 5.81656 7.44438 5.31129C7.2813 4.97298 7.01279 4.68032 6.74701 4.41452C6.20561 3.86171 5.37053 3.82096 4.64975 4.54189C4.11108 5.08049 3.63122 6.07902 4.4035 7.77737C4.86048 8.78206 5.59693 9.67068 5.95999 10.0374L5.96281 10.0402C6.32952 10.4034 7.21809 11.1399 8.22273 11.5968C9.35734 12.1128 10.5734 12.2353 11.4581 11.3506C12.1898 10.6188 12.1281 9.78477 11.5855 9.25338Z" fill="white"/>
</svg>
